<svg width="48" height="48" viewBox="0 0 48 48" fill="none" xmlns="http://www.w3.org/2000/svg">
<g filter="url(#filter0_d_1_1679)">
<circle cx="24" cy="24" r="14" fill="white"/>
</g>
<circle cx="24" cy="24" r="11.8999" fill="#F6F6F6"/>
<path d="M26 20.3333C26 19.781 25.5523 19.3333 25 19.3333C24.4477 19.3333 24 19.781 24 20.3333H26ZM24 29.6666C24 30.2189 24.4477 30.6666 25 30.6666C25.5523 30.6666 26 30.2189 26 29.6666H24ZM24 20.3333V29.6666H26V20.3333H24Z" fill="black"/>
<path d="M20.3335 24C19.7812 24 19.3335 24.4477 19.3335 25C19.3335 25.5523 19.7812 26 20.3335 26V24ZM29.6668 26C30.2191 26 30.6668 25.5523 30.6668 25C30.6668 24.4477 30.2191 24 29.6668 24V26ZM20.3335 26H29.6668V24H20.3335V26Z" fill="black"/>
<defs>
<filter id="filter0_d_1_1679" x="0" y="0" width="48" height="48" filterUnits="userSpaceOnUse" color-interpolation-filters="sRGB">
<feFlood flood-opacity="0" result="BackgroundImageFix"/>
<feColorMatrix in="SourceAlpha" type="matrix" values="0 0 0 0 0 0 0 0 0 0 0 0 0 0 0 0 0 0 127 0" result="hardAlpha"/>
<feOffset/>
<feGaussianBlur stdDeviation="5"/>
<feColorMatrix type="matrix" values="0 0 0 0 0.0583333 0 0 0 0 0.0583333 0 0 0 0 0.0583333 0 0 0 0.05 0"/>
<feBlend mode="normal" in2="BackgroundImageFix" result="effect1_dropShadow_1_1679"/>
<feBlend mode="normal" in="SourceGraphic" in2="effect1_dropShadow_1_1679" result="shape"/>
</filter>
</defs>
</svg>
