<svg width="20" height="23" viewBox="0 0 20 23" fill="none" xmlns="http://www.w3.org/2000/svg">
<path fill-rule="evenodd" clip-rule="evenodd" d="M11.0347 8.51962C12.6468 5.89696 14.8876 5.88452 14.8876 5.88452C14.8876 5.88452 15.2209 8.34999 13.6197 10.7254C11.9097 13.2615 9.9663 12.8466 9.9663 12.8466C9.9663 12.8466 9.60157 10.8513 11.0347 8.51962Z" fill="#999999"/>
<path fill-rule="evenodd" clip-rule="evenodd" d="M10.1715 1.40684C11.0009 1.40684 12.5396 0 14.5431 0C17.9913 0 19.3479 3.02861 19.3479 3.02861C19.3479 3.02861 16.6948 4.70309 16.6948 8.76593C16.6948 13.3492 20 14.9286 20 14.9286C20 14.9286 17.6895 22.9558 14.5689 22.9558C13.1353 22.9558 12.0214 21.7633 10.5108 21.7633C8.97169 21.7633 7.44464 23 6.44998 23C3.6002 23 0 15.3858 0 9.2649C0 3.24302 3.04725 0.0840727 5.90549 0.0840727C7.76343 0.0840727 9.20544 1.40684 10.1715 1.40684Z" fill="#999999"/>
</svg>
