<svg width="24" height="24" viewBox="0 0 24 24" fill="none" xmlns="http://www.w3.org/2000/svg">
<g clip-path="url(#clip0_1_2990)">
<path d="M15.1575 2.18182C10.2691 2.18182 6.31543 5.59637 6.31543 9.81819C6.31543 15.5455 15.1575 24 15.1575 24C15.1575 24 23.9996 15.5455 23.9996 9.81819C23.9996 5.59637 20.046 2.18182 15.1575 2.18182ZM8.84175 9.81819C8.84175 6.80728 11.6712 4.36364 15.1575 4.36364C18.6439 4.36364 21.4733 6.80728 21.4733 9.81819C21.4733 12.96 17.8354 17.6618 15.1575 20.5964C12.5302 17.6836 8.84175 12.9273 8.84175 9.81819Z" fill="#323232"/>
<path d="M15.1579 12.5455C16.9019 12.5455 18.3158 11.3244 18.3158 9.81818C18.3158 8.31196 16.9019 7.09091 15.1579 7.09091C13.4138 7.09091 12 8.31196 12 9.81818C12 11.3244 13.4138 12.5455 15.1579 12.5455Z" fill="#323232"/>
</g>
<defs>
<clipPath id="clip0_1_2990">
<rect width="24" height="24" fill="white"/>
</clipPath>
</defs>
</svg>
