<svg width="24" height="24" viewBox="0 0 24 24" fill="none" xmlns="http://www.w3.org/2000/svg">
<path d="M12.7537 11.2469C13.1052 11.5983 13.6751 11.5982 14.0266 11.2467C14.378 10.8951 14.3779 10.3253 14.0263 9.9739L12.7537 11.2469ZM7.8314 10.6104L7.19511 9.9739L7.19509 9.97393L7.8314 10.6104ZM5.0512 13.3896L4.41488 12.7531L4.41478 12.7532L5.0512 13.3896ZM3.89979 16.1692H2.99976H3.89979ZM10.6107 18.9488L11.2471 19.5852L10.6107 18.9488ZM12.6368 18.1956C12.9882 17.8442 12.9882 17.2743 12.6368 16.9229C12.2853 16.5714 11.7154 16.5714 11.3639 16.9229L12.6368 18.1956ZM14.0263 9.9739C13.1203 9.06832 11.8917 8.5596 10.6107 8.5596V10.3596C11.4144 10.3596 12.1853 10.6788 12.7537 11.2469L14.0263 9.9739ZM10.6107 8.5596C9.32969 8.5596 8.10111 9.06832 7.19511 9.9739L8.46769 11.2469C9.03613 10.6788 9.80696 10.3596 10.6107 10.3596V8.5596ZM7.19509 9.97393L4.41488 12.7531L5.68751 14.0261L8.46772 11.2469L7.19509 9.97393ZM4.41478 12.7532C3.50875 13.6592 2.99976 14.888 2.99976 16.1692H4.79982C4.79982 15.3654 5.11917 14.5944 5.68762 14.026L4.41478 12.7532ZM2.99976 16.1692C2.99976 17.4505 3.50875 18.6793 4.41478 19.5852L5.68762 18.3125C5.11917 17.744 4.79982 16.9731 4.79982 16.1692H2.99976ZM4.41478 19.5852C5.32081 20.4912 6.54964 21.0002 7.83095 21.0002V19.2002C7.02704 19.2002 6.25607 18.8809 5.68762 18.3125L4.41478 19.5852ZM7.83095 21.0002C9.11227 21.0002 10.3411 20.4912 11.2471 19.5852L9.97428 18.3125C9.40584 18.8809 8.63485 19.2002 7.83095 19.2002V21.0002ZM11.2471 19.5852L12.6368 18.1956L11.3639 16.9229L9.97428 18.3125L11.2471 19.5852Z" fill="#FF2A2A"/>
<path d="M11.2468 12.7529C10.8952 12.4015 10.3253 12.4017 9.97393 12.7532C9.62252 13.1047 9.62264 13.6746 9.9742 14.026L11.2468 12.7529ZM16.1691 13.3895L16.8054 14.026L16.8054 14.0259L16.1691 13.3895ZM18.9493 10.6103L19.5856 11.2468L19.5857 11.2467L18.9493 10.6103ZM20.1007 7.83067H21.0007H20.1007ZM16.1695 3.89969V2.99969V3.89969ZM13.3898 5.05104L12.7534 4.41465L13.3898 5.05104ZM11.3637 5.80424C11.0122 6.15571 11.0122 6.72555 11.3637 7.07702C11.7152 7.42849 12.2851 7.42849 12.6366 7.07702L11.3637 5.80424ZM9.9742 14.026C10.8802 14.9316 12.1088 15.4403 13.3898 15.4403V13.6403C12.586 13.6403 11.8152 13.3212 11.2468 12.7529L9.9742 14.026ZM13.3898 15.4403C14.6708 15.4403 15.8994 14.9316 16.8054 14.026L15.5328 12.7529C14.9644 13.3212 14.1935 13.6403 13.3898 13.6403V15.4403ZM16.8054 14.0259L19.5856 11.2468L18.313 9.9738L15.5328 12.753L16.8054 14.0259ZM19.5857 11.2467C20.4918 10.3407 21.0007 9.11192 21.0007 7.83067H19.2007C19.2007 8.63453 18.8813 9.40548 18.3129 9.9739L19.5857 11.2467ZM21.0007 7.83067C21.0007 6.54941 20.4918 5.32064 19.5857 4.41465L18.3129 5.68744C18.8813 6.25585 19.2007 7.0268 19.2007 7.83067H21.0007ZM19.5857 4.41465C18.6797 3.50867 17.4509 2.99969 16.1695 2.99969V4.79968C16.9734 4.79968 17.7444 5.11901 18.3129 5.68744L19.5857 4.41465ZM16.1695 2.99969C14.8882 2.99969 13.6594 3.50867 12.7534 4.41465L14.0262 5.68744C14.5947 5.11901 15.3656 4.79968 16.1695 4.79968V2.99969ZM12.7534 4.41465L11.3637 5.80424L12.6366 7.07702L14.0262 5.68744L12.7534 4.41465Z" fill="#FF2A2A"/>
</svg>
