<svg width="1" height="24" viewBox="0 0 1 24" fill="none" xmlns="http://www.w3.org/2000/svg">
<mask id="path-1-inside-1_1_2958" fill="white">
<ellipse cx="0.484064" cy="12" rx="0.484064" ry="12"/>
</mask>
<path d="M-2.03187 12C-2.03187 15.2867 -2.0857 18.2445 -2.17121 20.3644C-2.2143 21.4324 -2.26386 22.2468 -2.31396 22.7722C-2.32616 22.9 -2.33738 22.9999 -2.34707 23.0747C-2.35733 23.1537 -2.36308 23.1828 -2.36173 23.176C-2.36086 23.1716 -2.3551 23.1424 -2.34284 23.096C-2.33228 23.056 -2.30528 22.9583 -2.25455 22.8306C-2.21727 22.7367 -2.09638 22.4405 -1.83844 22.1163C-1.62076 21.8428 -0.858518 21 0.484064 21V27C1.84336 27 2.62221 26.1467 2.85639 25.8524C3.13083 25.5076 3.26811 25.1803 3.32166 25.0455C3.44117 24.7446 3.49903 24.468 3.52498 24.3364C3.58609 24.0264 3.62753 23.6711 3.65893 23.3418C3.72466 22.6527 3.7794 21.7097 3.82391 20.6062C3.9136 18.3829 3.96813 15.3407 3.96813 12H-2.03187ZM0.484064 21C1.82665 21 2.58889 21.8428 2.80657 22.1163C3.0645 22.4405 3.1854 22.7367 3.22268 22.8306C3.27341 22.9583 3.30041 23.056 3.31097 23.096C3.32323 23.1424 3.32899 23.1716 3.32986 23.176C3.33121 23.1828 3.32546 23.1537 3.3152 23.0747C3.30551 22.9999 3.29429 22.9 3.28209 22.7722C3.23199 22.2468 3.18242 21.4324 3.13934 20.3644C3.05383 18.2445 3 15.2867 3 12H-3C-3 15.3407 -2.94547 18.3829 -2.85578 20.6062C-2.81127 21.7097 -2.75653 22.6527 -2.6908 23.3418C-2.6594 23.6711 -2.61796 24.0264 -2.55685 24.3364C-2.5309 24.468 -2.47304 24.7446 -2.35353 25.0455C-2.29998 25.1803 -2.1627 25.5076 -1.88826 25.8524C-1.65408 26.1467 -0.875227 27 0.484064 27V21ZM3 12C3 8.71326 3.05383 5.75549 3.13934 3.63564C3.18242 2.5676 3.23199 1.75316 3.28209 1.22784C3.29429 1.09999 3.30551 1.0001 3.3152 0.925344C3.32546 0.846258 3.33121 0.817199 3.32986 0.824022C3.32899 0.828448 3.32323 0.857591 3.31097 0.904037C3.30041 0.944038 3.27341 1.04169 3.22268 1.16941C3.1854 1.26326 3.0645 1.55955 2.80657 1.88367C2.58889 2.15721 1.82665 3 0.484064 3V-3C-0.875227 -3 -1.65408 -2.14672 -1.88826 -1.85244C-2.1627 -1.50758 -2.29998 -1.18032 -2.35353 -1.0455C-2.47304 -0.744649 -2.5309 -0.468049 -2.55685 -0.336427C-2.61796 -0.0264182 -2.6594 0.328892 -2.6908 0.658198C-2.75653 1.34734 -2.81127 2.29027 -2.85578 3.3938C-2.94547 5.61709 -3 8.65932 -3 12H3ZM0.484064 3C-0.858518 3 -1.62076 2.15721 -1.83844 1.88367C-2.09638 1.55955 -2.21727 1.26326 -2.25455 1.16941C-2.30528 1.04169 -2.33228 0.944038 -2.34284 0.904037C-2.3551 0.857591 -2.36086 0.828448 -2.36173 0.824022C-2.36308 0.817199 -2.35733 0.846258 -2.34707 0.925344C-2.33738 1.0001 -2.32616 1.09999 -2.31396 1.22784C-2.26386 1.75316 -2.2143 2.5676 -2.17121 3.63564C-2.0857 5.75549 -2.03187 8.71326 -2.03187 12H3.96813C3.96813 8.65932 3.9136 5.61709 3.82391 3.3938C3.7794 2.29027 3.72466 1.34734 3.65893 0.658198C3.62753 0.328892 3.58609 -0.0264182 3.52498 -0.336427C3.49903 -0.468049 3.44117 -0.744649 3.32166 -1.0455C3.26811 -1.18032 3.13083 -1.50758 2.85639 -1.85244C2.62221 -2.14672 1.84336 -3 0.484064 -3V3Z" fill="#999999" mask="url(#path-1-inside-1_1_2958)"/>
</svg>
