<svg width="24" height="24" viewBox="0 0 24 24" fill="none" xmlns="http://www.w3.org/2000/svg">
<path d="M8.66447 14.0646C8.31301 14.4161 8.31301 14.9859 8.66447 15.3374C9.01593 15.6889 9.58576 15.6889 9.93722 15.3374L8.66447 14.0646ZM15.337 9.93747C15.6885 9.586 15.6885 9.01616 15.337 8.66469C14.9856 8.31323 14.4157 8.31323 14.0643 8.66469L15.337 9.93747ZM9.93722 15.3374L15.337 9.93747L14.0643 8.66469L8.66447 14.0646L9.93722 15.3374Z" fill="black"/>
<path d="M8.85086 9.30108C9.09938 9.30108 9.30084 9.09961 9.30084 8.85109C9.30084 8.60256 9.09938 8.40109 8.85086 8.40109C8.60234 8.40109 8.40088 8.60256 8.40088 8.85109C8.40088 9.09961 8.60234 9.30108 8.85086 9.30108Z" fill="black" stroke="black" stroke-width="2" stroke-linecap="round" stroke-linejoin="round"/>
<path d="M13.3506 13.8011C13.5991 13.8011 13.8006 13.5996 13.8006 13.3511C13.8006 13.1025 13.5991 12.9011 13.3506 12.9011C13.1021 12.9011 12.9006 13.1025 12.9006 13.3511C12.9006 13.5996 13.1021 13.8011 13.3506 13.8011Z" fill="black" stroke="black" stroke-width="2" stroke-linecap="round" stroke-linejoin="round"/>
<path d="M4.80103 7.68108C4.80103 8.17813 5.20396 8.58107 5.70099 8.58107C6.19804 8.58107 6.60096 8.17813 6.60096 7.68108H4.80103ZM7.68092 5.7011V4.80111V5.7011ZM8.58089 5.7011V6.60109H8.5814L8.58089 5.7011ZM9.97583 5.1251L10.6104 5.76329L10.6122 5.7615L9.97583 5.1251ZM10.6058 4.49511L11.2422 5.1315L11.244 5.12971L10.6058 4.49511ZM12.0098 3.91125V3.01126V3.91125ZM13.4137 4.49511L12.7755 5.12971L12.7773 5.1315L13.4137 4.49511ZM14.0436 5.1251L13.4073 5.7615L13.4091 5.76328L14.0436 5.1251ZM15.4386 5.7011L15.4381 6.60109H15.4386V5.7011ZM16.3386 5.7011V4.80111V5.7011ZM18.3185 8.58107H17.4185V8.58158L18.3185 8.58107ZM18.8945 9.97605L18.2563 10.6107L18.2581 10.6124L18.8945 9.97605ZM19.5244 10.606L18.8881 11.2424L18.8899 11.2442L19.5244 10.606ZM19.5244 13.414L18.8899 12.7758L18.8881 12.7776L19.5244 13.414ZM18.8945 14.044L18.2581 13.4076L18.2564 13.4094L18.8945 14.044ZM18.3185 15.439L17.4185 15.4385V15.439H18.3185ZM15.4386 18.3189V17.4189H15.4381L15.4386 18.3189ZM14.0436 18.8949L13.4091 18.2567L13.4073 18.2585L14.0436 18.8949ZM13.4137 19.5249L12.7773 18.8885L12.7755 18.8903L13.4137 19.5249ZM10.6058 19.5249L11.244 18.8903L11.2422 18.8885L10.6058 19.5249ZM9.97583 18.8949L10.6122 18.2585L10.6104 18.2568L9.97583 18.8949ZM8.58089 18.3189L8.5814 17.4189H8.58089V18.3189ZM5.70099 16.3389H4.80103H5.70099ZM5.70099 15.439H6.60096V15.4385L5.70099 15.439ZM5.12502 14.044L5.76318 13.4094L5.76139 13.4076L5.12502 14.044ZM4.49504 13.414L5.13142 12.7776L5.12962 12.7758L4.49504 13.414ZM3.9112 12.01H3.01123H3.9112ZM4.49504 10.606L5.12962 11.2442L5.13142 11.2424L4.49504 10.606ZM5.12502 9.97605L5.76139 10.6124L5.76317 10.6107L5.12502 9.97605ZM5.70099 8.58107L6.60096 8.58158V8.58107H5.70099ZM6.60096 7.68108C6.60096 7.18403 6.19804 6.78109 5.70099 6.78109C5.20396 6.78109 4.80103 7.18403 4.80103 7.68108H6.60096ZM6.60096 7.68108C6.60096 7.39465 6.71474 7.11995 6.91727 6.91741L5.64453 5.64463C5.10444 6.18474 4.80103 6.91726 4.80103 7.68108H6.60096ZM6.91727 6.91741C7.11981 6.71487 7.3945 6.60109 7.68092 6.60109V4.80111C6.91713 4.80111 6.18462 5.10453 5.64453 5.64463L6.91727 6.91741ZM7.68092 6.60109H8.58089V4.80111H7.68092V6.60109ZM8.5814 6.60109C9.34183 6.60066 10.0712 6.29948 10.6104 5.76328L9.34126 4.48693C9.13905 4.68801 8.86553 4.80095 8.58037 4.80111L8.5814 6.60109ZM10.6122 5.7615L11.2422 5.1315L9.96944 3.85872L9.33947 4.48872L10.6122 5.7615ZM11.244 5.12971C11.3443 5.02878 11.4637 4.94869 11.5951 4.89403L10.9039 3.23204C10.5535 3.37778 10.2353 3.59137 9.96765 3.86051L11.244 5.12971ZM11.5951 4.89403C11.7265 4.83938 11.8674 4.81124 12.0098 4.81124V3.01126C11.6302 3.01126 11.2544 3.08629 10.9039 3.23204L11.5951 4.89403ZM12.0098 4.81124C12.1521 4.81124 12.293 4.83938 12.4244 4.89403L13.1156 3.23204C12.7651 3.08629 12.3893 3.01126 12.0098 3.01126V4.81124ZM12.4244 4.89403C12.5559 4.94869 12.6752 5.02878 12.7755 5.12971L14.0518 3.86051C13.7843 3.59137 13.466 3.37778 13.1156 3.23204L12.4244 4.89403ZM12.7773 5.1315L13.4073 5.7615L14.68 4.48872L14.05 3.85872L12.7773 5.1315ZM13.4091 5.76328C13.9483 6.29948 14.6777 6.60066 15.4381 6.60109L15.4391 4.80111C15.154 4.80095 14.8804 4.68801 14.6783 4.48693L13.4091 5.76328ZM15.4386 6.60109H16.3386V4.80111H15.4386V6.60109ZM16.3386 6.60109C16.625 6.60109 16.8997 6.71487 17.1023 6.91741L18.375 5.64463C17.8349 5.10453 17.1024 4.80111 16.3386 4.80111V6.60109ZM17.1023 6.91741C17.3048 7.11995 17.4185 7.39465 17.4185 7.68108H19.2184C19.2184 6.91726 18.9151 6.18474 18.375 5.64463L17.1023 6.91741ZM17.4185 7.68108V8.58107H19.2184V7.68108H17.4185ZM17.4185 8.58158C17.419 9.34203 17.7202 10.0714 18.2564 10.6107L19.5326 9.34146C19.3316 9.13925 19.2186 8.86572 19.2184 8.58055L17.4185 8.58158ZM18.2581 10.6124L18.8881 11.2424L20.1608 9.96966L19.5308 9.33967L18.2581 10.6124ZM18.8899 11.2442C18.9908 11.3446 19.0709 11.4639 19.1256 11.5953L20.7875 10.9042C20.6417 10.5537 20.4282 10.2355 20.1591 9.96787L18.8899 11.2442ZM19.1256 11.5953C19.1802 11.7268 19.2084 11.8677 19.2084 12.01H21.0083C21.0083 11.6305 20.9332 11.2546 20.7875 10.9042L19.1256 11.5953ZM19.2084 12.01C19.2084 12.1524 19.1802 12.2933 19.1256 12.4247L20.7875 13.1159C20.9332 12.7654 21.0083 12.3896 21.0083 12.01H19.2084ZM19.1256 12.4247C19.0709 12.5562 18.9908 12.6755 18.8899 12.7758L20.1591 14.0522C20.4282 13.7846 20.6417 13.4664 20.7875 13.1159L19.1256 12.4247ZM18.8881 12.7776L18.2581 13.4076L19.5309 14.6804L20.1609 14.0504L18.8881 12.7776ZM18.2564 13.4094C17.7202 13.9487 17.419 14.678 17.4185 15.4385L19.2184 15.4395C19.2186 15.1544 19.3316 14.8808 19.5326 14.6786L18.2564 13.4094ZM17.4185 15.439V16.3389H19.2184V15.439H17.4185ZM17.4185 16.3389C17.4185 16.6254 17.3048 16.9001 17.1023 17.1027L18.375 18.3754C18.9151 17.8354 19.2184 17.1028 19.2184 16.3389H17.4185ZM17.1023 17.1027C16.8997 17.3052 16.625 17.4189 16.3386 17.4189V19.2189C17.1024 19.2189 17.8349 18.9155 18.375 18.3754L17.1023 17.1027ZM16.3386 17.4189H15.4386V19.2189H16.3386V17.4189ZM15.4381 17.4189C14.6777 17.4194 13.9483 17.7206 13.4091 18.2568L14.6783 19.5331C14.8804 19.332 15.154 19.2191 15.4391 19.2189L15.4381 17.4189ZM13.4073 18.2585L12.7773 18.8885L14.05 20.1614L14.68 19.5314L13.4073 18.2585ZM12.7755 18.8903C12.6752 18.9913 12.5559 19.0714 12.4244 19.126L13.1156 20.7881C13.466 20.6423 13.7843 20.4287 14.0518 20.1596L12.7755 18.8903ZM12.4244 19.126C12.293 19.1807 12.1521 19.2088 12.0098 19.2088V21.0088C12.3893 21.0088 12.7651 20.9338 13.1156 20.7881L12.4244 19.126ZM12.0098 19.2088C11.8674 19.2088 11.7265 19.1807 11.5951 19.126L10.9039 20.7881C11.2544 20.9338 11.6302 21.0088 12.0098 21.0088V19.2088ZM11.5951 19.126C11.4636 19.0714 11.3443 18.9913 11.244 18.8903L9.96765 20.1596C10.2353 20.4287 10.5535 20.6423 10.9039 20.7881L11.5951 19.126ZM11.2422 18.8885L10.6122 18.2585L9.33947 19.5313L9.96944 20.1613L11.2422 18.8885ZM10.6104 18.2568C10.0712 17.7206 9.34183 17.4194 8.5814 17.4189L8.58037 19.2189C8.86553 19.2191 9.13905 19.332 9.34126 19.5331L10.6104 18.2568ZM8.58089 17.4189H7.68092V19.2189H8.58089V17.4189ZM7.68092 17.4189C7.3945 17.4189 7.11981 17.3052 6.91727 17.1027L5.64453 18.3754C6.18462 18.9155 6.91713 19.2189 7.68092 19.2189V17.4189ZM6.91727 17.1027C6.71474 16.9001 6.60096 16.6254 6.60096 16.3389H4.80103C4.80103 17.1028 5.10444 17.8354 5.64453 18.3754L6.91727 17.1027ZM6.60096 16.3389V15.439H4.80103V16.3389H6.60096ZM6.60096 15.4385C6.60053 14.678 6.29936 13.9487 5.76317 13.4094L4.48686 14.6786C4.68793 14.8808 4.80087 15.1544 4.80103 15.4395L6.60096 15.4385ZM5.76139 13.4076L5.13142 12.7776L3.85867 14.0504L4.48865 14.6804L5.76139 13.4076ZM5.12962 12.7758C5.02869 12.6755 4.94861 12.5562 4.89395 12.4247L3.232 13.1159C3.37774 13.4664 3.59132 13.7846 3.86046 14.0522L5.12962 12.7758ZM4.89395 12.4247C4.8393 12.2933 4.81116 12.1524 4.81116 12.01H3.01123C3.01123 12.3896 3.08626 12.7654 3.232 13.1159L4.89395 12.4247ZM4.81116 12.01C4.81116 11.8677 4.8393 11.7268 4.89395 11.5953L3.232 10.9042C3.08626 11.2547 3.01123 11.6305 3.01123 12.01H4.81116ZM4.89395 11.5953C4.94861 11.4639 5.02869 11.3446 5.12962 11.2442L3.86046 9.96787C3.59132 10.2355 3.37774 10.5537 3.232 10.9042L4.89395 11.5953ZM5.13142 11.2424L5.76139 10.6124L4.48865 9.33967L3.85867 9.96966L5.13142 11.2424ZM5.76317 10.6107C6.29936 10.0714 6.60053 9.34203 6.60096 8.58158L4.80103 8.58055C4.80087 8.86572 4.68793 9.13925 4.48686 9.34146L5.76317 10.6107ZM6.60096 8.58107V7.68108H4.80103V8.58107H6.60096Z" fill="black"/>
</svg>
