<svg width="26" height="26" viewBox="0 0 26 26" fill="none" xmlns="http://www.w3.org/2000/svg">
<path d="M11.9313 5.81618L11.5549 6.40227L11.9313 5.81618ZM5.35466 6.12413L4.85356 5.63876L5.35466 6.12413ZM21.6453 6.12414L22.1464 5.63876L21.6453 6.12414ZM15.0687 5.81618L14.6923 5.23008L15.0687 5.81618ZM19.6908 10.5504C19.8042 10.9175 20.1957 11.1237 20.5653 11.0111C20.9349 10.8986 21.1427 10.5098 21.0293 10.1427L19.6908 10.5504ZM19.2377 8.52311L18.7435 9.01545L19.2377 8.52311ZM18.1379 6.9807C17.7767 6.8437 17.3721 7.02336 17.2342 7.38199C17.0962 7.74062 17.2771 8.1424 17.6382 8.27941L18.1379 6.9807ZM12.3077 5.23008C11.4397 4.68043 10.2532 4.1103 8.93711 4.01412C7.58547 3.91534 6.1468 4.3222 4.85356 5.63876L5.85576 6.60952C6.85006 5.59728 7.87961 5.33084 8.83435 5.40061C9.82466 5.47299 10.7827 5.91326 11.5549 6.40227L12.3077 5.23008ZM4.85356 5.63876C3.32684 7.19301 2.84787 9.11064 3.04033 11.0526C3.23073 12.9738 4.07535 14.9295 5.20431 16.6647C6.33607 18.4044 7.78192 19.9663 9.23205 21.1002C10.6515 22.2101 12.1906 23 13.5 23L13.5 21.6098C12.6777 21.6098 11.4541 21.0681 10.0982 20.0079C8.77291 18.9716 7.4307 17.5249 6.38026 15.9104C5.327 14.2914 4.59525 12.5475 4.43361 10.9165C4.27404 9.30633 4.66736 7.81934 5.85576 6.60952L4.85356 5.63876ZM13.5 23C14.8094 23 16.3485 22.2101 17.7679 21.1002C19.218 19.9663 20.6639 18.4044 21.7956 16.6647C22.9246 14.9295 23.7693 12.9738 23.9597 11.0526C24.1521 9.11064 23.6731 7.19301 22.1464 5.63876L21.1442 6.60952C22.3326 7.81934 22.7259 9.30634 22.5664 10.9165C22.4047 12.5475 21.673 14.2914 20.6197 15.9104C19.5692 17.5249 18.2271 18.9716 16.9017 20.0079C15.5458 21.0681 14.3222 21.6098 13.5 21.6098L13.5 23ZM22.1464 5.63876C20.8531 4.32222 19.4145 3.91535 18.0629 4.01413C16.7468 4.11031 15.5603 4.68044 14.6923 5.23008L15.4451 6.40228C16.2173 5.91327 17.1753 5.473 18.1657 5.40063C19.1204 5.33086 20.15 5.5973 21.1442 6.60952L22.1464 5.63876ZM11.5549 6.40227C12.7113 7.13453 14.2888 7.13453 15.4451 6.40228L14.6923 5.23008C13.9951 5.67159 13.0049 5.67159 12.3077 5.23008L11.5549 6.40227ZM21.0293 10.1427C20.7926 9.37643 20.3688 8.66126 19.7318 8.03077L18.7435 9.01545C19.2199 9.48693 19.5222 10.0046 19.6908 10.5504L21.0293 10.1427ZM19.7318 8.03077C19.2293 7.53342 18.6926 7.19116 18.1379 6.9807L17.6382 8.27941C17.9964 8.41524 18.3694 8.64516 18.7435 9.01545L19.7318 8.03077Z" fill="white"/>
</svg>
