<svg width="20" height="19" viewBox="0 0 20 19" fill="none" xmlns="http://www.w3.org/2000/svg">
<path d="M8.64369 3.18915L8.28321 3.77436L8.64369 3.18915ZM2.9574 3.44209L2.47251 2.95243L2.9574 3.44209ZM17.0426 3.44209L17.5275 2.95243L17.0426 3.44209ZM11.3564 3.18915L10.9958 2.60395L11.3564 3.18915ZM15.2713 7.11963C15.3884 7.47986 15.7789 7.67803 16.1435 7.56228C16.5079 7.44651 16.7085 7.06065 16.5914 6.70043L15.2713 7.11963ZM14.9609 5.41238L14.4831 5.90873L14.9609 5.41238ZM14.0316 4.03528C13.6718 3.90565 13.2739 4.08873 13.1427 4.44421C13.0115 4.79967 13.1968 5.19292 13.5565 5.32254L14.0316 4.03528ZM9.00416 2.60395C8.24715 2.14859 7.21042 1.67499 6.05901 1.59506C4.87681 1.51299 3.61181 1.85068 2.47251 2.95243L3.44228 3.93174C4.28083 3.12082 5.1499 2.90552 5.96184 2.96188C6.80458 3.02038 7.62207 3.37665 8.28321 3.77436L9.00416 2.60395ZM2.47251 2.95243C1.12502 4.2555 0.698709 5.87119 0.869091 7.50427C1.03687 9.11241 1.77926 10.7391 2.76163 12.1734C3.74742 13.6127 5.00573 14.9038 6.26775 15.8411C7.50157 16.7576 8.84777 17.4166 9.99998 17.4166V16.0464C9.30919 16.0464 8.26667 15.6118 7.10083 14.7459C5.96319 13.9009 4.8109 12.7209 3.9099 11.4055C3.0055 10.0849 2.38493 8.67304 2.24833 7.36375C2.11433 6.07941 2.44222 4.89883 3.44228 3.93174L2.47251 2.95243ZM9.99998 17.4166C11.1522 17.4166 12.4984 16.7576 13.7322 15.8411C14.9943 14.9038 16.2525 13.6127 17.2384 12.1734C18.2207 10.7391 18.9631 9.11241 19.1309 7.50427C19.3013 5.87119 18.875 4.2555 17.5275 2.95243L16.5578 3.93174C17.5577 4.89883 17.8857 6.07941 17.7517 7.36375C17.615 8.67304 16.9945 10.0849 16.0901 11.4055C15.189 12.7209 14.0368 13.9009 12.8991 14.7459C11.7333 15.6118 10.6908 16.0464 9.99998 16.0464V17.4166ZM17.5275 2.95243C16.3882 1.85069 15.1232 1.513 13.941 1.59507C12.7896 1.675 11.7529 2.14859 10.9958 2.60395L11.7169 3.77436C12.378 3.37666 13.1955 3.0204 14.0381 2.96189C14.8501 2.90553 15.7192 3.12083 16.5578 3.93174L17.5275 2.95243ZM8.28321 3.77436C9.30595 4.38955 10.6941 4.38955 11.7169 3.77436L10.9958 2.60395C10.416 2.95277 9.58406 2.95277 9.00416 2.60395L8.28321 3.77436ZM16.5914 6.70043C16.3795 6.04895 16.0014 5.44499 15.4388 4.91604L14.4831 5.90873C14.8831 6.28483 15.1328 6.69346 15.2713 7.11963L16.5914 6.70043ZM15.4388 4.91604C14.9947 4.49859 14.5207 4.21155 14.0316 4.03528L13.5565 5.32254C13.8566 5.43068 14.1691 5.61357 14.4831 5.90873L15.4388 4.91604Z" fill="white"/>
</svg>
