<svg width="40" height="32" viewBox="0 0 40 32" fill="none" xmlns="http://www.w3.org/2000/svg">
<g clip-path="url(#clip0_1_822)">
<path d="M40 3.89664C38.5022 4.54687 36.9134 4.97367 35.2866 5.16286C36.9811 4.16765 38.2822 2.59169 38.8948 0.713951C37.284 1.65065 35.5216 2.31062 33.6838 2.66533C32.1867 1.10254 30.0541 0.125854 27.6936 0.125854C23.1614 0.125854 19.4869 3.72639 19.4869 8.16719C19.4869 8.79754 19.5595 9.41121 19.6994 9.99992C12.8791 9.66445 6.83219 6.46307 2.78453 1.59785C2.07828 2.78552 1.67359 4.16704 1.67359 5.64057C1.67359 8.43054 3.1225 10.8918 5.32438 12.334C4.02117 12.294 2.74664 11.9491 1.60719 11.328C1.60672 11.3617 1.60672 11.3954 1.60672 11.4292C1.60672 15.3254 4.43547 18.5757 8.18953 19.3144C6.98107 19.6365 5.71348 19.6836 4.48359 19.4522C5.52781 22.647 8.55859 24.9718 12.1495 25.0369C9.34094 27.1936 5.80234 28.4793 1.95766 28.4793C1.29516 28.4793 0.642031 28.4412 0 28.3669C3.63172 30.6485 7.94531 31.9798 12.5797 31.9798C27.6745 31.9798 35.9287 19.7263 35.9287 9.09978C35.9287 8.75101 35.9209 8.4042 35.905 8.0594C37.5116 6.92131 38.8983 5.51167 40 3.89664Z" fill="#55ACEE"/>
</g>
<defs>
<clipPath id="clip0_1_822">
<rect width="40" height="32" fill="white"/>
</clipPath>
</defs>
</svg>
