<svg width="276" height="24" viewBox="0 0 276 24" fill="none" xmlns="http://www.w3.org/2000/svg">
<path d="M12 5.69L17 10.19V18H15V12H9V18H7V10.19L12 5.69ZM12 3L2 12H5V20H11V14H13V20H19V12H22L12 3Z" fill="#979797"/>
<path d="M99.5 14H98.71L98.43 13.73C99.41 12.59 100 11.11 100 9.5C100 5.91 97.09 3 93.5 3C89.91 3 87 5.91 87 9.5C87 13.09 89.91 16 93.5 16C95.11 16 96.59 15.41 97.73 14.43L98 14.71V15.5L103 20.49L104.49 19L99.5 14ZM93.5 14C91.01 14 89 11.99 89 9.5C89 7.01 91.01 5 93.5 5C95.99 5 98 7.01 98 9.5C98 11.99 95.99 14 93.5 14Z" fill="#979797"/>
<path d="M264 5.9C265.16 5.9 266.1 6.84 266.1 8C266.1 9.16 265.16 10.1 264 10.1C262.84 10.1 261.9 9.16 261.9 8C261.9 6.84 262.84 5.9 264 5.9ZM264 14.9C266.97 14.9 270.1 16.36 270.1 17V18.1H257.9V17C257.9 16.36 261.03 14.9 264 14.9ZM264 4C261.79 4 260 5.79 260 8C260 10.21 261.79 12 264 12C266.21 12 268 10.21 268 8C268 5.79 266.21 4 264 4ZM264 13C261.33 13 256 14.34 256 17V20H272V17C272 14.34 266.67 13 264 13Z" fill="#E87D00"/>
<path d="M183.55 13C184.3 13 184.96 12.59 185.3 11.97L188.88 5.48C189.25 4.82 188.77 4 188.01 4H173.21L172.27 2H169V4H171L174.6 11.59L173.25 14.03C172.52 15.37 173.48 17 175 17H187V15H175L176.1 13H183.55ZM174.16 6H186.31L183.55 11H176.53L174.16 6ZM175 18C173.9 18 173.01 18.9 173.01 20C173.01 21.1 173.9 22 175 22C176.1 22 177 21.1 177 20C177 18.9 176.1 18 175 18ZM185 18C183.9 18 183.01 18.9 183.01 20C183.01 21.1 183.9 22 185 22C186.1 22 187 21.1 187 20C187 18.9 186.1 18 185 18Z" fill="#979797"/>
</svg>
