<svg width="30" height="30" viewBox="0 0 30 30" fill="none" xmlns="http://www.w3.org/2000/svg">
<path d="M0 0H22.9172V20.8332H0V0Z" fill="#D9D9D9"/>
<path d="M8.77187 22.268L7.92932 22.4657L8.77187 22.268ZM8.77187 15.2303L7.92932 15.0326L8.77187 15.2303ZM28.7276 15.2303L27.885 15.4279L28.7276 15.2303ZM28.7276 22.268L27.885 22.0704L28.7276 22.268ZM22.2687 28.7269L22.071 27.8843L22.2687 28.7269ZM15.2309 28.7269L15.4285 27.8843L15.2309 28.7269ZM15.2309 8.77131L15.4285 9.61386L15.2309 8.77131ZM22.2687 8.77131L22.071 9.61386L22.2687 8.77131ZM9.61443 22.0704C9.102 19.8859 9.102 17.6124 9.61443 15.4279L7.92932 15.0326C7.35592 17.4771 7.35592 20.0212 7.92932 22.4657L9.61443 22.0704ZM27.885 15.4279C28.3975 17.6124 28.3975 19.8858 27.885 22.0704L29.5702 22.4656C30.1435 20.0212 30.1435 17.4771 29.5702 15.0326L27.885 15.4279ZM22.071 27.8843C19.8865 28.3968 17.613 28.3968 15.4285 27.8843L15.0332 29.5695C17.4777 30.1428 20.0218 30.1428 22.4662 29.5695L22.071 27.8843ZM15.4285 9.61386C17.613 9.10145 19.8865 9.10145 22.071 9.61386L22.4662 7.92877C20.0218 7.35537 17.4777 7.35537 15.0332 7.92877L15.4285 9.61386ZM15.4285 27.8843C12.5436 27.2077 10.2911 24.9552 9.61443 22.0704L7.92932 22.4657C8.75614 25.9905 11.5084 28.7427 15.0332 29.5695L15.4285 27.8843ZM22.4662 29.5695C25.9911 28.7427 28.7434 25.9905 29.5702 22.4656L27.885 22.0704C27.2084 24.9552 24.9558 27.2077 22.071 27.8843L22.4662 29.5695ZM22.071 9.61386C24.9558 10.2905 27.2084 12.5431 27.885 15.4279L29.5702 15.0326C28.7434 11.5078 25.9911 8.75558 22.4662 7.92877L22.071 9.61386ZM15.0332 7.92877C11.5084 8.75558 8.75614 11.5078 7.92932 15.0326L9.61443 15.4279C10.2911 12.5431 12.5436 10.2905 15.4285 9.61386L15.0332 7.92877Z" fill="white"/>
<path d="M16.1888 17.8485C15.8508 17.5105 15.3029 17.5105 14.9649 17.8485C14.6269 18.1865 14.6269 18.7344 14.9649 19.0724L16.1888 17.8485ZM17.8846 20.7682L17.2727 21.3802C17.4386 21.5461 17.6649 21.6376 17.8995 21.6335C18.1342 21.6295 18.3572 21.5303 18.5173 21.3587L17.8846 20.7682ZM22.5559 17.0316C22.8821 16.6822 22.8632 16.1346 22.5138 15.8085C22.1643 15.4824 21.6167 15.5013 21.2906 15.8507L22.5559 17.0316ZM14.9649 19.0724L17.2727 21.3802L18.4966 20.1563L16.1888 17.8485L14.9649 19.0724ZM18.5173 21.3587L22.5559 17.0316L21.2906 15.8507L17.252 20.1777L18.5173 21.3587Z" fill="white"/>
</svg>
