<svg width="16" height="16" viewBox="0 0 16 16" fill="none" xmlns="http://www.w3.org/2000/svg">
<path d="M2.15643 1.19841C1.89188 0.933865 1.46296 0.933865 1.19841 1.19841C0.933863 1.46296 0.933863 1.89188 1.19841 2.15643L2.15643 1.19841ZM13.8436 14.8016C14.1082 15.0661 14.537 15.0661 14.8016 14.8016C15.0661 14.537 15.0661 14.1082 14.8016 13.8436L13.8436 14.8016ZM1.19844 13.8436C0.933887 14.1082 0.933887 14.537 1.19844 14.8016C1.46298 15.0661 1.8919 15.0661 2.15645 14.8016L1.19844 13.8436ZM14.8017 2.15643C15.0661 1.89188 15.0661 1.46296 14.8017 1.19841C14.5371 0.933863 14.1082 0.933863 13.8436 1.19841L14.8017 2.15643ZM8.00003 8.00001L7.52102 7.521L8.00003 8.00001ZM1.19841 2.15643L13.8436 14.8016L14.8016 13.8436L2.15643 1.19841L1.19841 2.15643ZM2.15645 14.8016L8.47903 8.47902L7.52102 7.521L1.19844 13.8436L2.15645 14.8016ZM8.47903 8.47902L14.8017 2.15643L13.8436 1.19841L7.52102 7.521L8.47903 8.47902Z" fill="#2D264B"/>
</svg>
