<svg width="88" height="98" viewBox="0 0 88 98" fill="none" xmlns="http://www.w3.org/2000/svg">
<path fill-rule="evenodd" clip-rule="evenodd" d="M47.2542 0.521555C45.0795 -0.173852 42.7419 -0.173852 40.5673 0.521555L7.63419 11.0601C5.41759 11.7689 3.48357 13.1638 2.11138 15.0434C0.739185 16.9229 -0.000190626 19.1899 3.68653e-08 21.5172V43.598C3.68653e-08 53.4214 2.00735 63.5585 8.17367 72.968C14.34 82.3649 24.3893 90.6138 39.7393 97.1502C41.0585 97.7109 42.4773 98 43.9107 98C45.3442 98 46.763 97.7109 48.0822 97.1502C63.4322 90.6138 73.4815 82.3649 79.6477 72.968C85.8141 63.5585 87.8214 53.4214 87.8214 43.598V21.5172C87.8216 19.1899 87.0822 16.9229 85.71 15.0434C84.3379 13.1638 82.4038 11.7689 80.1873 11.0601L47.2542 0.521555ZM43.4277 9.48562C43.7398 9.38531 44.0754 9.38531 44.3875 9.48562L77.3205 20.0242C77.6372 20.1253 77.9136 20.3243 78.1098 20.5927C78.3059 20.861 78.4118 21.1847 78.412 21.5172V43.598C78.412 52.1167 76.6869 60.3217 71.7814 67.8116C66.8634 75.3015 58.4765 82.4903 44.3937 88.4935C44.2407 88.5574 44.0765 88.5903 43.9107 88.5903C43.7449 88.5903 43.5807 88.5574 43.4277 88.4935C29.3449 82.4966 20.958 75.2953 16.0399 67.8054C11.1346 60.3217 9.40944 52.1292 9.40944 43.598V21.5172C9.41099 21.1858 9.51745 20.8635 9.71353 20.5964C9.90962 20.3293 10.1853 20.1312 10.5009 20.0304L43.434 9.49189L43.4277 9.48562ZM64.486 39.0814C65.3171 38.1896 65.7695 37.01 65.748 35.7911C65.7265 34.5722 65.2328 33.4094 64.3707 32.5474C63.5088 31.6854 62.3458 31.1917 61.127 31.1702C59.9082 31.1486 58.7286 31.6011 57.8367 32.4321L39.206 51.0628L33.1212 44.978C32.6906 44.5158 32.1712 44.1451 31.594 43.8879C31.0169 43.6308 30.3939 43.4925 29.7622 43.4814C29.1305 43.4702 28.503 43.5864 27.9172 43.823C27.3313 44.0597 26.7992 44.4119 26.3525 44.8586C25.9057 45.3053 25.5535 45.8375 25.3169 46.4233C25.0803 47.0092 24.9641 47.6367 24.9752 48.2684C24.9864 48.9001 25.1247 49.5231 25.3818 50.1002C25.6389 50.6773 26.0097 51.1967 26.4719 51.6274L35.8813 61.0368C36.7635 61.9178 37.9592 62.4127 39.206 62.4127C40.4528 62.4127 41.6485 61.9178 42.5307 61.0368L64.486 39.0814Z" fill="#34A853"/>
</svg>
