<svg width="191" height="191" viewBox="0 0 191 191" fill="none" xmlns="http://www.w3.org/2000/svg">
<path d="M68.9724 21.217C54.3449 21.217 42.4658 33.0167 42.4658 47.5858V76.8881C42.4658 77.5917 42.7453 78.2662 43.2428 78.7637C43.7403 79.2612 44.415 79.5409 45.1186 79.5409C45.8222 79.5409 46.4969 79.2612 46.9944 78.7637C47.4919 78.2662 47.7714 77.5917 47.7714 76.8881V47.58C47.7714 35.8812 57.1728 26.5226 68.9724 26.5226C80.7719 26.5226 90.1734 35.8817 90.1734 47.5858V76.8881C90.1734 77.5917 90.4528 78.2662 90.9503 78.7637C91.4478 79.2612 92.1226 79.5409 92.8261 79.5409C93.5297 79.5409 94.2044 79.2612 94.7019 78.7637C95.1994 78.2662 95.4789 77.5917 95.4789 76.8881V47.58C95.4789 33.0162 83.5998 21.217 68.9724 21.217Z" fill="black"/>
<path d="M37.1386 58.3664H122.027C124.967 58.3664 127.333 60.7327 127.333 63.672V169.783C127.333 172.722 124.967 175.088 122.027 175.088H37.1386C34.1993 175.088 31.833 172.722 31.833 169.783V63.672C31.833 60.7327 34.1993 58.3664 37.1386 58.3664Z" fill="#E42C34"/>
<path d="M32.13 58.3664H121.73C124.834 58.3664 127.333 60.7327 127.333 63.672V169.783C127.333 172.722 124.839 175.088 121.73 175.088H32.13C29.0263 175.088 26.5273 172.722 26.5273 169.783V63.672C26.5273 60.7327 29.021 58.3664 32.13 58.3664Z" fill="#B9864B"/>
<path d="M61.0134 76.9359C61.0134 78.343 60.4544 79.6925 59.4595 80.6875C58.4645 81.6824 57.115 82.2414 55.7079 82.2414C54.3008 82.2414 52.9513 81.6824 51.9563 80.6875C50.9613 79.6925 50.4023 78.343 50.4023 76.9359C50.4023 75.5287 50.9613 74.1793 51.9563 73.1843C52.9513 72.1893 54.3008 71.6303 55.7079 71.6303C57.115 71.6303 58.4645 72.1893 59.4595 73.1843C60.4544 74.1793 61.0134 75.5287 61.0134 76.9359ZM108.763 76.9359C108.763 78.343 108.204 79.6925 107.21 80.6875C106.215 81.6824 104.865 82.2414 103.458 82.2414C102.051 82.2414 100.701 81.6824 99.7063 80.6875C98.7113 79.6925 98.1523 78.343 98.1523 76.9359C98.1523 75.5287 98.7113 74.1793 99.7063 73.1843C100.701 72.1893 102.051 71.6303 103.458 71.6303C104.865 71.6303 106.215 72.1893 107.21 73.1843C108.204 74.1793 108.763 75.5287 108.763 76.9359Z" fill="#E6E6E6"/>
<path d="M79.5837 21.2381C64.9562 21.2381 53.0771 33.0376 53.0771 47.6014V76.8933C53.0771 77.5969 53.3566 78.2714 53.8541 78.7689C54.3516 79.2664 55.0264 79.5461 55.7299 79.5461C56.4335 79.5461 57.1082 79.2664 57.6057 78.7689C58.1032 78.2714 58.3827 77.5969 58.3827 76.8933V47.6014C58.3827 35.9026 67.7841 26.5436 79.5837 26.5436C91.3832 26.5436 100.785 35.9026 100.785 47.6014V76.8933C100.785 77.5969 101.064 78.2714 101.562 78.7689C102.059 79.2664 102.734 79.5461 103.437 79.5461C104.141 79.5461 104.816 79.2664 105.313 78.7689C105.811 78.2714 106.09 77.5969 106.09 76.8933V47.6014C106.09 33.0376 94.2111 21.2381 79.5837 21.2381Z" fill="black"/>
<path d="M21.2226 58.3664C18.2833 58.3664 15.917 60.7327 15.917 63.672V169.783C15.917 172.722 18.2833 175.088 21.2226 175.088H37.1392C34.1999 175.088 31.8337 172.722 31.8337 169.783V63.672C31.8337 60.7327 34.1999 58.3664 37.1392 58.3664H21.2226Z" fill="#896830"/>
<path d="M21.2226 58.3664C18.2833 58.3664 15.917 60.7327 15.917 63.672V63.725C15.9258 64.8663 16.2977 65.9858 16.9958 66.9724C17.6938 67.959 18.6937 68.7783 19.8962 69.3489C21.106 69.9231 22.4783 70.2253 23.8753 70.2253C25.2723 70.2253 26.6447 69.9231 27.8545 69.3489C29.0569 68.7783 30.0569 67.959 30.7549 66.9724C31.453 65.9858 31.8249 64.8663 31.8337 63.725C31.8338 63.7073 31.8338 63.6897 31.8337 63.672C31.8337 60.7327 34.1999 58.3664 37.1392 58.3664H21.2226Z" fill="#312621"/>
<path d="M82.2362 100.811H167.125C170.064 100.811 172.431 103.177 172.431 106.116V169.783C172.431 172.722 170.064 175.089 167.125 175.089H82.2362C79.2969 175.089 76.9307 172.722 76.9307 169.783V106.116C76.9307 103.177 79.2969 100.811 82.2362 100.811Z" fill="#F7CC9B"/>
<path d="M106.111 114.075C106.111 115.482 105.552 116.831 104.557 117.826C103.562 118.821 102.213 119.38 100.806 119.38C99.3984 119.38 98.0489 118.821 97.054 117.826C96.059 116.831 95.5 115.482 95.5 114.075C95.5 112.668 96.059 111.318 97.054 110.323C98.0489 109.328 99.3984 108.769 100.806 108.769C102.213 108.769 103.562 109.328 104.557 110.323C105.552 111.318 106.111 112.668 106.111 114.075ZM153.861 114.075C153.861 115.482 153.302 116.831 152.307 117.826C151.312 118.821 149.963 119.38 148.556 119.38C147.148 119.38 145.799 118.821 144.804 117.826C143.809 116.831 143.25 115.482 143.25 114.075C143.25 112.668 143.809 111.318 144.804 110.323C145.799 109.328 147.148 108.769 148.556 108.769C149.963 108.769 151.312 109.328 152.307 110.323C153.302 111.318 153.861 112.668 153.861 114.075Z" fill="#E6E6E6"/>
<path d="M100.785 111.422C100.436 111.427 100.092 111.501 99.7725 111.639C99.4528 111.778 99.1634 111.979 98.921 112.229C98.6786 112.479 98.4879 112.775 98.3598 113.099C98.2316 113.423 98.1686 113.768 98.1742 114.117V132.803C98.1742 147.367 110.053 159.161 124.681 159.161C139.308 159.161 151.187 147.367 151.187 132.803V114.117C151.187 113.413 150.908 112.739 150.41 112.241C149.913 111.744 149.238 111.464 148.535 111.464C147.831 111.464 147.156 111.744 146.659 112.241C146.161 112.739 145.882 113.413 145.882 114.117V132.803C145.882 144.502 136.48 153.855 124.681 153.855C112.881 153.855 103.48 144.502 103.48 132.803V114.117C103.485 113.761 103.42 113.408 103.286 113.079C103.153 112.749 102.955 112.45 102.703 112.198C102.452 111.947 102.152 111.748 101.823 111.615C101.493 111.481 101.14 111.416 100.785 111.422Z" fill="black"/>
<path d="M66.3192 100.811C63.38 100.811 61.0137 103.177 61.0137 106.116V169.783C61.0137 172.722 63.38 175.089 66.3192 175.089H82.2359C79.2966 175.089 76.9304 172.722 76.9304 169.783V106.116C76.9304 103.177 79.2966 100.811 82.2359 100.811H66.3192Z" fill="#BE8F5A"/>
<path d="M66.3192 100.811C63.38 100.811 61.0137 103.177 61.0137 106.116V106.169C61.0225 107.311 61.3944 108.43 62.0924 109.417C62.7905 110.403 63.7904 111.223 64.9928 111.793C66.2027 112.368 67.575 112.67 68.972 112.67C70.369 112.67 71.7414 112.368 72.9512 111.793C74.1536 111.223 75.1536 110.403 75.8516 109.417C76.5497 108.43 76.9216 107.311 76.9304 106.169C76.9305 106.152 76.9305 106.134 76.9304 106.116C76.9304 103.177 79.2966 100.811 82.2359 100.811H66.3192Z" fill="#967044"/>
<path d="M68.9724 15.9167C51.4906 15.9167 37.1603 30.1356 37.1603 47.5856V53.0662H21.2224C15.4394 53.0662 10.6113 57.8943 10.6113 63.6773V169.789C10.6113 175.572 15.4394 180.4 21.2224 180.4H167.125C172.908 180.4 177.736 175.572 177.736 169.789V106.122C177.736 100.339 172.908 95.5107 167.125 95.5107H132.639V63.6773C132.639 57.8943 127.811 53.0662 122.028 53.0662H111.395V47.6015C111.395 30.1568 97.0653 15.9379 79.5835 15.9379C77.8009 15.9379 76.0606 16.1713 74.3522 16.4578C72.5777 16.1241 70.7779 15.943 68.9724 15.9167ZM68.9724 21.2222C70.8081 21.2222 72.5961 21.4079 74.331 21.7634C76.0288 21.4185 77.7796 21.2435 79.5835 21.2435C94.2109 21.2435 106.09 33.0377 106.09 47.6068V58.3718H122.028C124.967 58.3718 127.333 60.738 127.333 63.6773V100.816H167.125C170.064 100.816 172.43 103.182 172.43 106.122V169.789C172.43 172.728 170.064 175.094 167.125 175.094H21.2224C18.2832 175.094 15.9169 172.728 15.9169 169.789V63.6773C15.9169 60.738 18.2832 58.3718 21.2224 58.3718H42.4659V47.5856C42.4659 33.0165 54.345 21.2222 68.9724 21.2222ZM74.3098 27.2653C65.1153 29.5785 58.3825 37.7225 58.3825 47.6068V58.3718H90.1734V47.5856C90.1734 37.7278 83.4672 29.5997 74.3098 27.2653ZM62.4784 27.6261C53.9259 30.3372 47.7714 38.1523 47.7714 47.5856V58.3718H53.077V47.6015C53.077 39.5689 56.7749 32.4594 62.4731 27.6261H62.4784ZM86.1624 27.6685C91.8181 32.4966 95.479 39.5848 95.479 47.5856V58.3718H100.785V47.6015C100.785 38.2053 94.6725 30.4062 86.1624 27.6685ZM74.2992 33.2393C80.3847 35.4518 84.8679 40.7043 84.8679 47.5856V53.0662H63.6881V47.6015C63.6881 40.7043 68.1872 35.4358 74.2992 33.2446V33.2393Z" fill="#E9EDED"/>
</svg>
