<svg width="25" height="26" viewBox="0 0 25 26" fill="none" xmlns="http://www.w3.org/2000/svg">
<path d="M11.4721 5.80975L11.1102 6.39519L11.4721 5.80975ZM5.14839 6.11737L4.66657 5.63253L5.14839 6.11737ZM20.8124 6.11738L21.2942 5.63253L20.8124 6.11738ZM14.4887 5.80975L14.1269 5.22431L14.4887 5.80975ZM18.9331 10.5388C19.0421 10.9054 19.4186 11.1114 19.7739 10.999C20.1293 10.8865 20.3291 10.4982 20.2201 10.1315L18.9331 10.5388ZM18.4974 8.51369L18.0222 9.00549L18.4974 8.51369ZM17.4399 6.97299C17.0927 6.83614 16.7036 7.01561 16.571 7.37384C16.4382 7.73207 16.6123 8.13341 16.9595 8.27026L17.4399 6.97299ZM11.834 5.2243C10.9994 4.67526 9.8585 4.10575 8.59304 4.00968C7.29339 3.91101 5.91006 4.31743 4.66657 5.63253L5.63021 6.60221C6.58627 5.5911 7.57622 5.32495 8.49424 5.39465C9.44645 5.46694 10.3677 5.90673 11.1102 6.39519L11.834 5.2243ZM4.66657 5.63253C3.19857 7.18507 2.73802 9.10058 2.92308 11.0404C3.10616 12.9595 3.91829 14.913 5.00383 16.6463C6.09206 18.3841 7.48228 19.9443 8.87664 21.0769C10.2415 22.1855 11.7214 22.9746 12.9804 22.9746L12.9804 21.5859C12.1898 21.5859 11.0132 21.0449 9.70943 19.9858C8.43516 18.9507 7.14457 17.5056 6.13454 15.8928C5.1218 14.2756 4.4182 12.5336 4.26277 10.9044C4.10934 9.29605 4.48753 7.81071 5.63021 6.60221L4.66657 5.63253ZM12.9804 22.9746C14.2394 22.9746 15.7193 22.1855 17.0841 21.0769C18.4785 19.9443 19.8687 18.3841 20.957 16.6463C22.0425 14.913 22.8547 12.9595 23.0378 11.0404C23.2228 9.10058 22.7622 7.18507 21.2942 5.63253L20.3306 6.60221C21.4732 7.81071 21.8514 9.29606 21.6981 10.9044C21.5426 12.5336 20.839 14.2756 19.8263 15.8928C18.8162 17.5056 17.5257 18.9507 16.2513 19.9858C14.9475 21.0449 13.771 21.5859 12.9804 21.5859L12.9804 22.9746ZM21.2942 5.63253C20.0507 4.31744 18.6674 3.91103 17.3678 4.00969C16.1023 4.10577 14.9615 4.67527 14.1269 5.22431L14.8507 6.3952C15.5932 5.90674 16.5143 5.46695 17.4666 5.39466C18.3846 5.32497 19.3746 5.59111 20.3306 6.60221L21.2942 5.63253ZM11.1102 6.39519C12.222 7.12665 13.7388 7.12665 14.8507 6.3952L14.1269 5.22431C13.4565 5.66532 12.5044 5.66532 11.834 5.2243L11.1102 6.39519ZM20.2201 10.1315C19.9925 9.36607 19.585 8.65169 18.9725 8.0219L18.0222 9.00549C18.4803 9.47645 18.771 9.99357 18.9331 10.5388L20.2201 10.1315ZM18.9725 8.0219C18.4893 7.5251 17.9733 7.18321 17.4399 6.97299L16.9595 8.27026C17.3038 8.40595 17.6625 8.63561 18.0222 9.00549L18.9725 8.0219Z" fill="white"/>
</svg>
