<svg width="21" height="20" viewBox="0 0 21 20" fill="none" xmlns="http://www.w3.org/2000/svg">
<path d="M9.5316 0.590073C9.90185 -0.196651 11.021 -0.196652 11.3912 0.590073L13.7429 5.5871C13.8927 5.90538 14.1949 6.12493 14.5439 6.16903L20.023 6.86146C20.8857 6.97047 21.2315 8.03481 20.5977 8.63005L16.5719 12.4108C16.3155 12.6516 16.2001 13.0069 16.266 13.3524L17.3006 18.7774C17.4635 19.6315 16.5581 20.2893 15.7962 19.8704L10.9564 17.21C10.6482 17.0406 10.2746 17.0406 9.96639 17.21L5.12665 19.8704C4.36469 20.2893 3.45931 19.6315 3.6222 18.7774L4.65682 13.3524C4.72272 13.0069 4.6073 12.6516 4.35088 12.4108L0.325138 8.63005C-0.308669 8.03481 0.0371564 6.97047 0.899788 6.86146L6.37895 6.16903C6.72795 6.12493 7.03013 5.90538 7.17992 5.5871L9.5316 0.590073Z" fill="#F5BE18"/>
</svg>
