<svg width="13" height="15" viewBox="0 0 13 15" fill="none" xmlns="http://www.w3.org/2000/svg">
<path d="M6.5 1.51515C6.12864 1.51515 5.82759 1.82041 5.82759 2.19697C5.82759 2.57353 6.12864 2.87879 6.5 2.87879V1.51515ZM12.3276 2.87879C12.6989 2.87879 13 2.57353 13 2.19697C13 1.82041 12.6989 1.51515 12.3276 1.51515V2.87879ZM6.5 12.1212C6.12864 12.1212 5.82759 12.4265 5.82759 12.803C5.82759 13.1795 6.12864 13.4848 6.5 13.4848V12.1212ZM12.3276 13.4848C12.6989 13.4848 13 13.1795 13 12.803C13 12.4265 12.6989 12.1212 12.3276 12.1212V13.4848ZM6.5 8.18182C6.87136 8.18182 7.17241 7.87655 7.17241 7.5C7.17241 7.12345 6.87136 6.81818 6.5 6.81818V8.18182ZM0.672414 6.81818C0.30105 6.81818 0 7.12345 0 7.5C0 7.87655 0.30105 8.18182 0.672414 8.18182L0.672414 6.81818ZM6.5 2.87879H12.3276V1.51515H6.5V2.87879ZM6.5 13.4848H12.3276V12.1212H6.5V13.4848ZM6.5 6.81818H0.672414L0.672414 8.18182H6.5V6.81818ZM0 2.19697C0 3.39395 0.937378 4.39394 2.12931 4.39394V3.0303C1.712 3.0303 1.34483 2.67358 1.34483 2.19697H0ZM2.12931 4.39394C3.32124 4.39394 4.25862 3.39395 4.25862 2.19697H2.91379C2.91379 2.67358 2.54662 3.0303 2.12931 3.0303V4.39394ZM4.25862 2.19697C4.25862 0.999993 3.32124 0 2.12931 0V1.36364C2.54662 1.36364 2.91379 1.72035 2.91379 2.19697H4.25862ZM2.12931 0C0.937378 0 0 0.999993 0 2.19697H1.34483C1.34483 1.72035 1.712 1.36364 2.12931 1.36364V0ZM0 12.803C0 14 0.937378 15 2.12931 15V13.6364C1.712 13.6364 1.34483 13.2796 1.34483 12.803H0ZM2.12931 15C3.32124 15 4.25862 14 4.25862 12.803H2.91379C2.91379 13.2796 2.54662 13.6364 2.12931 13.6364V15ZM4.25862 12.803C4.25862 11.6061 3.32124 10.6061 2.12931 10.6061V11.9697C2.54662 11.9697 2.91379 12.3265 2.91379 12.803H4.25862ZM2.12931 10.6061C0.937378 10.6061 0 11.6061 0 12.803H1.34483C1.34483 12.3265 1.712 11.9697 2.12931 11.9697V10.6061ZM13 7.5C13 6.30302 12.0627 5.30303 10.8707 5.30303V6.66666C11.288 6.66666 11.6552 7.02339 11.6552 7.5H13ZM10.8707 5.30303C9.67872 5.30303 8.74138 6.30302 8.74138 7.5H10.0862C10.0862 7.02339 10.4533 6.66666 10.8707 6.66666V5.30303ZM8.74138 7.5C8.74138 8.69698 9.67872 9.69697 10.8707 9.69697V8.33334C10.4533 8.33334 10.0862 7.97661 10.0862 7.5H8.74138ZM10.8707 9.69697C12.0627 9.69697 13 8.69697 13 7.5H11.6552C11.6552 7.97661 11.288 8.33334 10.8707 8.33334V9.69697Z" fill="white"/>
</svg>
