<svg width="16" height="16" viewBox="0 0 16 16" fill="none" xmlns="http://www.w3.org/2000/svg">
<path d="M5.29303 1.636C5.10556 1.82353 5.00024 2.07784 5.00024 2.343C5.00024 2.60817 5.10556 2.86248 5.29303 3.05001L10.243 8.00001L5.29303 12.95C5.11087 13.1386 5.01008 13.3912 5.01236 13.6534C5.01463 13.9156 5.1198 14.1664 5.30521 14.3518C5.49062 14.5372 5.74143 14.6424 6.00362 14.6447C6.26582 14.6469 6.51842 14.5461 6.70703 14.364L12.364 8.70701C12.5515 8.51948 12.6568 8.26517 12.6568 8.00001C12.6568 7.73484 12.5515 7.48053 12.364 7.29301L6.70703 1.636C6.5195 1.44853 6.26519 1.34322 6.00003 1.34322C5.73487 1.34322 5.48056 1.44853 5.29303 1.636Z" fill="black"/>
</svg>
