<svg width="1" height="2" viewBox="0 0 1 2" fill="none" xmlns="http://www.w3.org/2000/svg">
<path d="M0.20208 0.323538L0.194676 0.372491L0.20208 0.323538ZM0.0670089 0.350651L0.0571624 0.310154L0.0670089 0.350651ZM0.401585 0.350652L0.411431 0.310154L0.401585 0.350652ZM0.266515 0.323538L0.259112 0.274585L0.266515 0.323538ZM0.362064 0.739384C0.364276 0.770096 0.371946 0.787391 0.379196 0.778015C0.386445 0.76864 0.390527 0.736143 0.388313 0.705432L0.362064 0.739384ZM0.352137 0.561864L0.342427 0.602945L0.352137 0.561864ZM0.329337 0.428957C0.322261 0.417451 0.314323 0.432424 0.311608 0.462402C0.308891 0.49238 0.312426 0.52601 0.319502 0.537516L0.329337 0.428957ZM0.209483 0.274584C0.191703 0.226316 0.167434 0.176357 0.140542 0.167933C0.112943 0.159286 0.0835779 0.194873 0.0571624 0.310154L0.0768554 0.39115C0.0974213 0.301397 0.118748 0.277704 0.138518 0.283897C0.158994 0.290312 0.17877 0.329313 0.194676 0.372491L0.209483 0.274584ZM0.0571624 0.310154C0.0259776 0.446248 0.0161933 0.614087 0.0201271 0.784245C0.0240215 0.952697 0.0413058 1.12439 0.0644538 1.27692C0.0876555 1.42979 0.117298 1.56707 0.147022 1.6667C0.176139 1.7643 0.207611 1.83339 0.234297 1.83339V1.71711C0.217203 1.71711 0.191935 1.66897 0.164051 1.5755C0.136774 1.48407 0.109156 1.35646 0.0875397 1.21402C0.0658697 1.07124 0.0507786 0.917201 0.0474428 0.77291C0.0441465 0.630327 0.0522773 0.498412 0.0768554 0.39115L0.0571624 0.310154ZM0.234297 1.83339C0.260982 1.83339 0.292454 1.7643 0.321571 1.6667C0.351296 1.56707 0.380938 1.42979 0.404139 1.27692C0.427287 1.12439 0.444573 0.952697 0.448467 0.784245C0.452401 0.614087 0.442617 0.446248 0.411431 0.310154L0.391739 0.39115C0.416316 0.498412 0.424448 0.630327 0.42115 0.77291C0.417815 0.917201 0.402725 1.07124 0.381055 1.21402C0.359438 1.35646 0.33182 1.48407 0.304541 1.5755C0.276658 1.66897 0.251389 1.71711 0.234297 1.71711V1.83339ZM0.411431 0.310154C0.385016 0.194874 0.35565 0.159288 0.328052 0.167934C0.30116 0.176359 0.276892 0.226317 0.259112 0.274585L0.273919 0.372492C0.289825 0.329314 0.309601 0.290313 0.330076 0.283898C0.349846 0.277705 0.371172 0.301398 0.391739 0.39115L0.411431 0.310154ZM0.194676 0.372491C0.218222 0.436412 0.250371 0.436412 0.273919 0.372492L0.259112 0.274585C0.244589 0.314006 0.224005 0.314006 0.209483 0.274584L0.194676 0.372491ZM0.388313 0.705432C0.38349 0.638485 0.374852 0.575958 0.361848 0.520782L0.342427 0.602945C0.352289 0.64479 0.358563 0.690808 0.362064 0.739384L0.388313 0.705432ZM0.361848 0.520782C0.351592 0.477262 0.340644 0.447347 0.329337 0.428957L0.319502 0.537516C0.326941 0.549616 0.334679 0.570077 0.342427 0.602945L0.361848 0.520782Z" fill="white"/>
</svg>
