<svg width="24" height="24" viewBox="0 0 24 24" fill="none" xmlns="http://www.w3.org/2000/svg">
<g clip-path="url(#clip0_1_1595)">
<path d="M21.5998 6.54546H19.1998C19.1998 4.13455 17.0518 2.18182 14.3998 2.18182C11.7478 2.18182 9.5998 4.13455 9.5998 6.54546H7.1998C5.8798 6.54546 4.7998 7.52727 4.7998 8.72727V21.8182C4.7998 23.0182 5.8798 24 7.1998 24H21.5998C22.9198 24 23.9998 23.0182 23.9998 21.8182V8.72727C23.9998 7.52727 22.9198 6.54546 21.5998 6.54546ZM14.3998 4.36364C15.7198 4.36364 16.7998 5.34546 16.7998 6.54546H11.9998C11.9998 5.34546 13.0798 4.36364 14.3998 4.36364ZM21.5998 21.8182H7.1998V8.72727H9.5998V10.9091C9.5998 11.5091 10.1398 12 10.7998 12C11.4598 12 11.9998 11.5091 11.9998 10.9091V8.72727H16.7998V10.9091C16.7998 11.5091 17.3398 12 17.9998 12C18.6598 12 19.1998 11.5091 19.1998 10.9091V8.72727H21.5998V21.8182Z" fill="#323232"/>
</g>
<defs>
<clipPath id="clip0_1_1595">
<rect width="24" height="24" fill="white"/>
</clipPath>
</defs>
</svg>
